<?xml version="1.0" encoding="UTF-8"?>
<svg id="Layer_1" xmlns="http://www.w3.org/2000/svg" version="1.1" viewBox="0 0 1280 769">
  <defs>
    <style>
      .st0 {
        fill: #1A2B4A;
      }

      .st1 {
        fill: #9e7c44;
      }
    </style>
  </defs>
  <g>
    <path class="st0" d="M311.68,300.75c11.06-4.21,20.62-7.86,31.19-11.89v69.4c3.38-2.86,6.64-5.4,9.64-8.2,16.66-15.55,38.96-15.16,55.02,1.03,16.27,16.4,20.55,43.32,10.41,65.56-10.41,22.83-31.94,36.55-55.62,34.85-5.89-.42-11.78-2.14-17.47-3.91-7.76-2.41-15.19-4.03-22.65,3.54,0-3.23,0-5.13,0-7.04,0-42.65-.02-85.31.06-127.96.01-6.94-1.75-12.54-10.57-15.37ZM343.21,384.56s.08,0,.13,0c0,5.5-.27,11.01.06,16.49.67,11.04,2.58,21.85,7.94,31.72,4.97,9.15,12.47,14.67,23.12,15.01,10.56.34,16.88-6.16,21.62-14.47,6.86-12.03,8.41-25.12,6.62-38.68-1.69-12.78-6.54-24.08-16.2-32.9-6.34-5.79-13.66-9.49-22.54-9.16-7.62.28-14.19,3.54-18.6,9.35-2.13,2.81-1.74,7.68-2.08,11.65-.31,3.64-.07,7.32-.07,10.99Z"/>
    <path class="st0" d="M930.26,484.15c-4,1.82-7.92,3.84-12.01,5.43-38.74,15.09-76.97,12.21-114.79-3.49-29.03-12.05-52.66-31.66-74.49-53.67-9.58-9.65-18.71-19.75-28.49-30.17v30.16c.95,7.47,4.57,13.26,14.18,15.87-.33.33-.66.66-.99.98h-45.64c3.83-3.22,7.65-6.42,11.5-9.66v-31.91c-.02-18.36-.06-36.72.07-55.07.05-6.24-1-11.63-8.09-14.68,9.33-6.79,17.8-12.96,26.28-19.1.5-.36,1.13-.55,2.45-1.17v81.07c2.02-1.65,3.22-2.43,4.19-3.44,10.77-11.13,21.57-22.23,32.2-33.5,1.89-2,3.61-4.54,4.39-7.13,1.6-5.34-.46-9.71-5.89-13.18h32.73c-14.28,5.64-23.51,17.24-33.93,27.29-5.5,5.3-10.62,10.99-16.08,16.69.52.84.83,1.6,1.36,2.17,19.08,20.46,37.49,41.61,57.46,61.16,22.01,21.54,48.21,36.59,78.74,43.05,23.35,4.93,46.04,2.22,68.13-6.46,2.07-.82,4.13-1.66,6.2-2.48.17.41.35.82.52,1.24Z"/>
    <path class="st0" d="M968.32,441.78c-8.72,10.06-30.09,13.54-40.26,6.17-3.08-2.23-5.2-6.35-6.66-10.03-1.17-2.95-.9-6.56-.91-9.88-.07-25.83-.06-51.66-.07-77.49,0-1.98,0-3.96,0-6.32h-34.15c-.1,1.95-.27,3.71-.28,5.46-.03,25.5-.08,51-.04,76.49.03,18.46,9.61,24.2,27.34,15.11-1.24,1.75-1.63,2.73-2.35,3.25-10.49,7.58-22.1,8.98-34.21,5.27-7.71-2.36-11.38-8.47-11.43-18.02-.12-23.16-.03-46.33-.03-69.49,0-5.97,0-11.93,0-18.62h-15.46c16.96-6.26,28.88-17.04,34.56-34.36.41.11.82.23,1.22.34v31.26c20.97,2.08,37.85,3.43,55.5-31.32v32.34h26.94c-.01.55-.02,1.09-.03,1.64h-26.4c-.13,2.23-.31,3.82-.31,5.4-.04,26-.08,52-.06,77.99.01,17.38,10.32,23.33,25.5,14.82.24-.13.62-.02,1.58-.02Z"/>
    <path class="st0" d="M502.3,364.82c0-1.26-.18-1.84.03-2.16,10.73-16.47,26.83-26.5,47.27-22.85,14.11,2.52,23.49,13.68,23.68,28.06.2,14.98.13,29.97.2,44.96.01,3.33,0,6.66.15,9.99.77,16.02,4.95,21.23,20.53,25.33-.86.53-1.45,1.19-2.07,1.23-6.79.48-13.61,1.4-20.39,1.14-9.95-.39-15.89-5.78-18.4-15.37-.24-.91-.47-1.82-.87-3.39-2.21,2.4-3.93,4.36-5.74,6.21-6.69,6.85-14.55,11.66-24.17,13.01-12.16,1.71-23.33-.4-30.4-11.39-7.21-11.2-6.77-23.21,0-34.53,8.17-13.66,21.68-18.71,36.57-20.31,7.69-.83,15.54-.15,23.56-.15,0-7.45.58-13.95-.15-20.3-.9-7.83-8.79-14.61-17.29-15.78-10.09-1.39-18.73,1.71-25.85,8.97-2.14,2.18-4.12,4.53-6.66,7.32ZM552.64,386.53c-6.58,0-12.42-.45-18.16.08-22.85,2.12-34.38,27.22-21.4,46.24,4.87,7.14,14.26,10.59,22.92,8.41,6.47-1.63,16.45-10.77,16.56-15.94.26-12.77.08-25.55.08-38.79Z"/>
    <path class="st0" d="M855.12,375.73c-24.47,8.35-48.71,16.63-73.58,25.12,5.13,14.89,13.77,26.44,28.11,32.76,18.3,8.06,33.68,2.28,47.59-10.98-.64,1.19-1.18,2.43-1.92,3.55-13.63,20.6-35.14,29.45-56.81,23.42-22.06-6.14-36.62-25.41-37.65-49.83-1.27-29.91,19.01-55.55,47.21-59.69,22.39-3.29,43.86,12.7,47.06,35.65ZM781.01,398.82c19.48-6.67,38.15-13.07,56.91-19.49-2.15-10.27-5.94-19.26-12.27-27.02-9.94-12.18-24.41-12.78-34.96-1.07-12.26,13.61-13.34,29.76-9.68,47.59Z"/>
    <path class="st0" d="M676.02,424.33c-3.7,4.34-7.08,9.01-11.16,12.95-19.75,19.07-50.53,18.61-69.64-.83-16.28-16.56-19.69-45.15-8.06-67.5,10.71-20.58,34.45-32.38,57.39-28.42,9.07,1.56,16.98,5.61,24.02,11.52,2.13,1.79,2.59,3.27,1.08,5.9-3.13,5.45-5.81,11.17-9.11,17.66-.9-2.23-1.35-3.73-2.08-5.07-3.34-6.09-5.98-12.78-10.32-18.06-11-13.37-28.21-12.75-39.06.79-8.52,10.64-10.73,23.11-9.7,36.25,1.41,18.09,9.33,32.45,25.34,41.71,14.85,8.59,31.48,7.13,44.71-3.77,1.78-1.46,3.5-2.99,5.25-4.49l1.36,1.35Z"/>
    <path class="st0" d="M468.65,449.46h-46.67c.1-.61.06-1.11.21-1.18,9.81-4.22,12.63-11.83,12.32-22.13-.58-19.63-.3-39.28-.21-58.93.03-7.24-1.73-13.21-10.74-16.47,11.27-3.72,21.16-6.98,31.54-10.4v35.99c2.78-6.56,4.63-12.2,7.48-17.27,2.82-5.02,6.09-10.04,10.16-14.05,8-7.88,20.14-7.91,28.91-.61-1,1.78-1.98,3.67-3.1,5.48-1.66,2.69-2.85,6.43-5.28,7.64-2.12,1.05-5.68-.72-8.59-1.34-10.51-2.24-21.4,2.89-24.32,13.25-2.72,9.66-3.94,19.85-4.78,29.9-.81,9.76-.01,19.64-.46,29.45-.39,8.61,3.07,14.37,10.85,17.77,1.11.48,2.08,1.27,3.11,1.92-.15.33-.3.66-.45.99Z"/>
    <polygon class="st1" points="654.75 292.85 754.55 269.5 714.66 346.32 714.66 304.32 654.75 292.85"/>
  </g>
</svg>
